<?xml version="1.0" encoding="utf-8"?>
<!-- Generator: Adobe Illustrator 18.1.1, SVG Export Plug-In . SVG Version: 6.00 Build 0)  -->
<svg version="1.1" id="Layer_1" xmlns="http://www.w3.org/2000/svg" xmlns:xlink="http://www.w3.org/1999/xlink" x="0px" y="0px"
	 viewBox="0 0 2722.5 2273.5" enable-background="new 0 0 2722.5 2273.5" xml:space="preserve">
<g>
	<g>
		<defs>
			<polygon id="SVGID_1_" points="1998.4,1169.1 1354.3,1541 710.1,1169.1 710.1,517.1 889.9,620.9 1556.1,1005.5 1354.3,1122 
				912,866.6 912,1052.6 1354.3,1308 1796.6,1052.6 1796.6,960.8 969.4,483.2 970.4,481.4 791.7,378.2 1354.3,53.5 1403.8,82.1 
				1556.1,170 1713.9,261.1 1780.5,299.6 1998.4,425.3 1998.4,658.4 1679.6,474.3 1515.3,379.5 1354.3,286.5 1354.3,286.5 
				1193.2,379.5 1946.7,814.5 1998.4,844.3 			"/>
		</defs>
		<clipPath id="SVGID_2_">
			<use xlink:href="#SVGID_1_"  overflow="visible"/>
		</clipPath>
		<linearGradient id="SVGID_3_" gradientUnits="userSpaceOnUse" x1="2285.2969" y1="1347.9425" x2="-274.4587" y2="-166.2066">
			<stop  offset="0" style="stop-color:#2193B0"/>
			<stop  offset="0.2123" style="stop-color:#2B9CB8"/>
			<stop  offset="0.5711" style="stop-color:#45B2CD"/>
			<stop  offset="1" style="stop-color:#6DD5ED"/>
		</linearGradient>
		<rect x="710.1" y="53.5" clip-path="url(#SVGID_2_)" fill="url(#SVGID_3_)" width="1288.2" height="1487.5"/>
	</g>
	<g>
		<defs>
			<path id="SVGID_4_" d="M1354.3,705.5L969.4,483.2l1-1.8L791.7,378.2l562.6-324.8v233h0l-161,93l161,93V705.5z M1354.3,1541
				L1354.3,1541l-644.1-371.9l0-652l179.8,103.8L1354.3,889v233L912,866.6v185.9l442.3,255.4V1541z"/>
		</defs>
		<clipPath id="SVGID_5_">
			<use xlink:href="#SVGID_4_"  overflow="visible"/>
		</clipPath>
		<linearGradient id="SVGID_6_" gradientUnits="userSpaceOnUse" x1="2191.4827" y1="1502.1453" x2="217.3023" y2="301.6972">
			<stop  offset="0" style="stop-color:#2193B0"/>
			<stop  offset="0.3517" style="stop-color:#39A7C3"/>
			<stop  offset="1" style="stop-color:#6DD5ED"/>
		</linearGradient>
		<rect x="710.1" y="53.5" clip-path="url(#SVGID_5_)" fill="url(#SVGID_6_)" width="644.1" height="1487.5"/>
	</g>
</g>
<g>
	<path fill="#FFFFFF" d="M164.9,2033.5L35.7,1910.3l129.2-122.7h61.6L96.8,1910.3l129.7,123.3H164.9z"/>
	<path fill="#FFFFFF" d="M381.7,2097c-19.5-8.8-34.8-20.9-45.8-36.4c-11.1-15.5-16.8-33.5-17.2-53.9h52c1.8,17.5,9,32.3,21.7,44.2
		c12.7,12,31.2,18,55.5,18c23.2,0,41.5-5.8,54.9-17.4c13.4-11.6,20.1-26.5,20.1-44.8c0-14.3-3.9-25.9-11.8-34.8
		c-7.9-8.9-17.7-15.7-29.5-20.4c-11.8-4.6-27.7-9.6-47.7-15c-24.7-6.4-44.4-12.9-59.2-19.3c-14.8-6.4-27.5-16.5-38.1-30.3
		c-10.5-13.8-15.8-32.2-15.8-55.5c0-20.4,5.2-38.4,15.5-54.1c10.4-15.7,24.9-27.9,43.7-36.4c18.8-8.6,40.3-12.9,64.6-12.9
		c35,0,63.7,8.8,86,26.3c22.3,17.5,34.9,40.7,37.8,69.7h-53.6c-1.8-14.3-9.3-26.9-22.5-37.8c-13.2-10.9-30.7-16.3-52.5-16.3
		c-20.4,0-37,5.3-49.8,15.8c-12.9,10.5-19.3,25.3-19.3,44.2c0,13.6,3.8,24.7,11.5,33.2c7.7,8.6,17.2,15.1,28.4,19.6
		c11.3,4.5,27.1,9.6,47.4,15.3c24.7,6.8,44.5,13.5,59.5,20.1c15,6.6,27.9,16.8,38.6,30.6c10.7,13.8,16.1,32.4,16.1,56
		c0,18.2-4.8,35.4-14.5,51.5c-9.6,16.1-23.9,29.1-42.9,39.1c-18.9,10-41.3,15-67,15C423.3,2110.2,401.2,2105.8,381.7,2097z"/>
	<path fill="#FFFFFF" d="M692.9,1772.5v124.9H829v40.2H692.9v128.6h152.2v40.2h-201v-374.1h201v40.2H692.9z"/>
	<path fill="#FFFFFF" d="M1115.8,2106.4l-89-152.8h-59v152.8H919v-373.6h120.6c28.2,0,52.1,4.8,71.6,14.5
		c19.5,9.6,34,22.7,43.7,39.1c9.6,16.4,14.5,35.2,14.5,56.3c0,25.7-7.4,48.4-22.2,68.1c-14.8,19.7-37.1,32.7-66.7,39.1l93.8,156.5
		H1115.8z M967.8,1914.5h71.8c26.4,0,46.3-6.5,59.5-19.6c13.2-13,19.8-30.5,19.8-52.3c0-22.2-6.5-39.3-19.6-51.5
		c-13-12.1-33-18.2-59.8-18.2h-71.8V1914.5z"/>
	<path fill="#FFFFFF" d="M1527.9,1841.1c-10.4-21.8-25.4-38.7-45-50.7c-19.7-12-42.5-18-68.6-18c-26.1,0-49.6,6-70.5,18
		c-20.9,12-37.3,29.1-49.3,51.5c-12,22.3-18,48.2-18,77.5c0,29.3,6,55,18,77.2c12,22.2,28.4,39.2,49.3,51.2c20.9,12,44.4,18,70.5,18
		c36.4,0,66.5-10.9,90-32.7c23.6-21.8,37.3-51.3,41.3-88.4h-149v-39.7h201v37.5c-2.9,30.7-12.5,58.9-28.9,84.4
		c-16.4,25.6-38.1,45.7-64.9,60.6c-26.8,14.8-56.6,22.2-89.5,22.2c-34.7,0-66.3-8.1-94.9-24.4c-28.6-16.3-51.2-38.9-67.8-67.8
		c-16.6-28.9-24.9-61.6-24.9-98.1c0-36.4,8.3-69.2,24.9-98.4c16.6-29.1,39.2-51.8,67.8-68.1c28.6-16.3,60.2-24.4,94.9-24.4
		c39.7,0,74.8,9.8,105.3,29.5c30.6,19.7,52.8,47.4,66.7,83.1H1527.9z"/>
	<path fill="#FFFFFF" d="M1710.7,1732.8v373.6h-48.8v-373.6H1710.7z"/>
	<path fill="#FFFFFF" d="M1868.3,2085.8c-28.6-16.3-51.2-38.9-67.8-68.1c-16.6-29.1-24.9-61.9-24.9-98.4c0-36.4,8.3-69.2,24.9-98.4
		c16.6-29.1,39.2-51.8,67.8-68.1c28.6-16.3,60.2-24.4,94.9-24.4c35,0,66.8,8.1,95.4,24.4c28.6,16.3,51.1,38.9,67.5,67.8
		c16.4,28.9,24.7,61.8,24.7,98.6c0,36.8-8.2,69.7-24.7,98.6c-16.4,28.9-39,51.5-67.5,67.8c-28.6,16.3-60.4,24.4-95.4,24.4
		C1928.5,2110.2,1896.9,2102.1,1868.3,2085.8z M2033.6,2049.6c20.9-12.1,37.3-29.5,49.3-52c12-22.5,18-48.6,18-78.3
		c0-30-6-56.2-18-78.5c-12-22.3-28.3-39.6-49-51.7c-20.7-12.1-44.3-18.2-70.8-18.2c-26.4,0-50,6.1-70.8,18.2
		c-20.7,12.2-37.1,29.4-49,51.7c-12,22.3-18,48.5-18,78.5c0,29.7,6,55.7,18,78.3c12,22.5,28.4,39.8,49.3,52
		c20.9,12.2,44.4,18.2,70.5,18.2C1989.2,2067.8,2012.7,2061.8,2033.6,2049.6z"/>
	<path fill="#FFFFFF" d="M2397.3,1601.5l-146.9,596h-48.2l146.3-596H2397.3z"/>
	<path fill="#FFFFFF" d="M2479.3,1787.5h61.6l129.7,122.7L2541,2033.5h-61.6l129.7-123.3L2479.3,1787.5z"/>
</g>
</svg>
