<?xml version="1.0" encoding="utf-8"?>
<!-- Generator: Adobe Illustrator 18.1.1, SVG Export Plug-In . SVG Version: 6.00 Build 0)  -->
<svg version="1.1" xmlns="http://www.w3.org/2000/svg" xmlns:xlink="http://www.w3.org/1999/xlink" x="0px" y="0px"
	 viewBox="0 0 2797.6 3077.5" enable-background="new 0 0 2797.6 3077.5" xml:space="preserve">
<g id="Layer_1">
</g>
<g id="icons">
	<g>
		<g>
			<rect x="-601.2" y="-61.3" display="none" fill="#D14747" width="4000" height="3200"/>
			<path fill="#FCFCFC" d="M2603,1108.8c0,706.7-429.4,861.9-838.7,907.5c88.4,90.4,133.7,214.5,124.3,340.6v504.3
				c0,21.4,6.4,44.4,21.6,62c-153.4,42.7-315,65.5-481.9,65.5c-166.5,0-327.8-22.7-480.8-65.2c16.6-17.8,23.6-41.8,23.6-63.9v-342.1
				c-511.3,110.5-617.9-217-617.9-217C269.8,2088.1,149.3,2031,149.3,2031c-166.8-113.5,12.4-111.2,12.4-111.2
				c118.1,16.2,222.2,86,281.9,189.2c163.7,281.1,430.2,200,535.2,154.5c7.8-93.3,49.3-180.6,116.6-245.6
				c-408.6-46.3-838-204.7-838-909c-2.6-182.6,65.5-359.1,190-492.7c-56.7-158.5-50.3-332.6,17.7-486.6c0,0,154.5-49.4,505.1,188.4
				c301.3-82.4,619.3-82.4,920.6,0C2242.3,80.1,2396,129.6,2396,129.6c68.1,153.9,74.4,328.1,17.8,486.6
				C2538,749.8,2605.8,926.3,2603,1108.8z"/>
			<g>
				<g>
					<path fill="#141414" d="M284.5,2004.7c0,9.3-17.8,11.6-30.9,5.4c-13.1-6.2-20.9-18.5-17-27.8c3.9-9.3,18.5-11.6,31.7-5.4
						C281.4,1983.1,289.1,1995.5,284.5,2004.7z"/>
					<path fill="#141414" d="M359.4,2087.4c-8.5,8.5-26.3,4.6-37.8-8.5c-11.2-9.4-13.6-25.7-5.4-37.8c9.3-8.5,25.5-4.6,37.8,8.5
						C366.3,2062.7,368.6,2079.7,359.4,2087.4z"/>
					<path fill="#141414" d="M432,2194c-11.6,7.7-30.1,0-40.9-16.2c-10.8-16.2-11.6-36.3,0-44c11.6-7.7,29.3,0,40.9,15.5
						C443.6,2164.6,443.6,2185.5,432,2194z"/>
					<path fill="#141414" d="M530.8,2295.9c-10,10.8-31.7,7.7-47.1-7c-15.4-14.7-20.9-36.3-10-47.1c10.8-10.8,31.7-7.7,47.1,7
						C536.2,2263.5,541.6,2285.1,530.8,2295.9z"/>
					<path fill="#141414" d="M668.3,2355.4c-4.6,13.9-25.5,20.9-46.3,14.7c-20.9-6.2-34-23.2-30.1-37.8
						c3.9-14.7,25.5-20.9,46.3-14.7C659,2323.7,672.2,2340.7,668.3,2355.4z"/>
					<path fill="#141414" d="M818.1,2366.2c0,15.4-17,27.8-38.6,27.8c-21.6,0-40.2-11.6-40.2-26.3c0-14.7,17-27.8,39.4-28.6
						C801.1,2338.4,818.1,2351.5,818.1,2366.2L818.1,2366.2z"/>
					<path fill="#141414" d="M958.7,2342.2c0,14.7-13.1,30.1-34.7,34c-21.6,3.9-40.9-4.6-43.3-19.3c-2.3-14.7,12.4-30.9,34-34.8
						C936.3,2318.3,955.6,2327.6,958.7,2342.2L958.7,2342.2z"/>
				</g>
			</g>
		</g>
	</g>
</g>
</svg>
